<svg xmlns="http://www.w3.org/2000/svg" width="32" height="32" viewBox="0 0 32 32">
  <!-- Background -->
  <rect width="32" height="32" rx="4" fill="#1a1a2e"/>
  <!-- Grid lines -->
  <line x1="8" y1="4" x2="8" y2="28" stroke="#3a3a5c" stroke-width="0.5"/>
  <line x1="16" y1="4" x2="16" y2="28" stroke="#3a3a5c" stroke-width="0.5"/>
  <line x1="24" y1="4" x2="24" y2="28" stroke="#3a3a5c" stroke-width="0.5"/>
  <line x1="4" y1="8" x2="28" y2="8" stroke="#3a3a5c" stroke-width="0.5"/>
  <line x1="4" y1="16" x2="28" y2="16" stroke="#3a3a5c" stroke-width="0.5"/>
  <line x1="4" y1="24" x2="28" y2="24" stroke="#3a3a5c" stroke-width="0.5"/>
  <!-- Graph edges -->
  <line x1="8" y1="8" x2="16" y2="8" stroke="#6c63ff" stroke-width="2" stroke-linecap="round"/>
  <line x1="16" y1="8" x2="24" y2="8" stroke="#6c63ff" stroke-width="2" stroke-linecap="round"/>
  <line x1="8" y1="8" x2="8" y2="16" stroke="#6c63ff" stroke-width="2" stroke-linecap="round"/>
  <line x1="16" y1="8" x2="16" y2="16" stroke="#6c63ff" stroke-width="2" stroke-linecap="round"/>
  <line x1="8" y1="16" x2="16" y2="16" stroke="#6c63ff" stroke-width="2" stroke-linecap="round"/>
  <line x1="16" y1="16" x2="24" y2="16" stroke="#6c63ff" stroke-width="2" stroke-linecap="round"/>
  <line x1="24" y1="8" x2="24" y2="16" stroke="#6c63ff" stroke-width="2" stroke-linecap="round"/>
  <line x1="8" y1="16" x2="8" y2="24" stroke="#6c63ff" stroke-width="2" stroke-linecap="round"/>
  <line x1="16" y1="16" x2="16" y2="24" stroke="#6c63ff" stroke-width="2" stroke-linecap="round"/>
  <line x1="8" y1="24" x2="16" y2="24" stroke="#6c63ff" stroke-width="2" stroke-linecap="round"/>
  <line x1="16" y1="24" x2="24" y2="24" stroke="#6c63ff" stroke-width="2" stroke-linecap="round"/>
  <line x1="24" y1="16" x2="24" y2="24" stroke="#6c63ff" stroke-width="2" stroke-linecap="round"/>
  <!-- Graph nodes -->
  <circle cx="8" cy="8" r="2.5" fill="#ff6b9d"/>
  <circle cx="16" cy="8" r="2.5" fill="#ff6b9d"/>
  <circle cx="24" cy="8" r="2.5" fill="#ff6b9d"/>
  <circle cx="8" cy="16" r="2.5" fill="#ff6b9d"/>
  <circle cx="16" cy="16" r="2.5" fill="#c084fc"/>
  <circle cx="24" cy="16" r="2.5" fill="#ff6b9d"/>
  <circle cx="8" cy="24" r="2.5" fill="#ff6b9d"/>
  <circle cx="16" cy="24" r="2.5" fill="#ff6b9d"/>
  <circle cx="24" cy="24" r="2.5" fill="#ff6b9d"/>
</svg>
